<?xml version="1.0" encoding="utf-8"?>
<!-- Generator: Adobe Illustrator 22.0.1, SVG Export Plug-In . SVG Version: 6.00 Build 0)  -->
<svg version="1.1" id="Capa_1" xmlns="http://www.w3.org/2000/svg" xmlns:xlink="http://www.w3.org/1999/xlink" x="0px" y="0px"
	 viewBox="0 0 612 612" style="enable-background:new 0 0 612 612;" xml:space="preserve">
<g>
	<g id="Delete">
		<g>
			<path d="M308.4,301.9l-2.4,2.4l-2.4-2.4l-1.6,1.6l2.4,2.4l-2.4,2.4l1.6,1.6l2.4-2.4l2.4,2.4l1.6-1.6l-2.4-2.4l2.4-2.4
				L308.4,301.9z M312.5,299.5c-3.6-3.6-9.4-3.6-13,0c-3.6,3.6-3.6,9.4,0,13c3.6,3.6,9.4,3.6,13,0
				C316.1,308.9,316.1,303.1,312.5,299.5z M310.8,310.9c-2.7,2.7-7,2.7-9.7,0c-2.7-2.7-2.7-7,0-9.7c2.7-2.7,7-2.7,9.7,0
				C313.5,303.8,313.5,308.2,310.8,310.9z"/>
		</g>
	</g>
</g>
</svg>
